REM DIRINDEX 1\2,1\3\7,1\3\8,1\4\9,1\4\10,1\4\11,1\5\12,1\5\13,1\5\14,1\6\15,1\6\16,1\6\17
REM DIRNAME "folder01","folder02","folder03","folder04","folder05","folder06","folder07","folder08","folder09","folder10","folder11","folder12","folder13","folder14","folder15","folder16","folder17"
TITLE ""
FILE "2Q_t_0571-0587.mp3" MP3
  TRACK 01 AUDIO
    TITLE "0:"
    INDEX 01 00:00:00
  TRACK 02 AUDIO
    TITLE "7:cjc174_2900"
    INDEX 01 00:00:16
  TRACK 03 AUDIO
    TITLE "0:"
    INDEX 01 00:01:18
  TRACK 04 AUDIO
    TITLE "8:cjc174_2901"
    INDEX 01 00:01:69
  TRACK 05 AUDIO
    TITLE "0:"
    INDEX 01 00:02:60
  TRACK 06 AUDIO
    TITLE "7:cjc174_2902"
    INDEX 01 00:03:28
  TRACK 07 AUDIO
    TITLE "0:"
    INDEX 01 00:04:45
  TRACK 08 AUDIO
    TITLE "8:cjc174_2903"
    INDEX 01 00:05:21
  TRACK 09 AUDIO
    TITLE "0:"
    INDEX 01 00:08:16
  TRACK 10 AUDIO
    TITLE "7:cjc174_2904"
    INDEX 01 00:08:59
  TRACK 11 AUDIO
    TITLE "0:"
    INDEX 01 00:09:60
  TRACK 12 AUDIO
    TITLE "8:cjc174_2905"
    INDEX 01 00:10:38
  TRACK 13 AUDIO
    TITLE "0:"
    INDEX 01 00:12:27
  TRACK 14 AUDIO
    TITLE "7:cjc174_2906"
    INDEX 01 00:12:72
  TRACK 15 AUDIO
    TITLE "0:"
    INDEX 01 00:14:28
  TRACK 16 AUDIO
    TITLE "8:cjc174_2907"
    INDEX 01 00:14:73
  TRACK 17 AUDIO
    TITLE "0:"
    INDEX 01 00:16:13
  TRACK 18 AUDIO
    TITLE "2:cjc174_2908"
    INDEX 01 00:16:58
  TRACK 19 AUDIO
    TITLE "0:"
    INDEX 01 00:18:06
  TRACK 20 AUDIO
    TITLE "7:cjc174_2909"
    INDEX 01 00:18:51
  TRACK 21 AUDIO
    TITLE "0:"
    INDEX 01 00:19:59
  TRACK 22 AUDIO
    TITLE "8:cjc174_2910"
    INDEX 01 00:20:38
  TRACK 23 AUDIO
    TITLE "0:"
    INDEX 01 00:22:33
  TRACK 24 AUDIO
    TITLE "7:cjc174_2911"
    INDEX 01 00:23:03
  TRACK 25 AUDIO
    TITLE "0:"
    INDEX 01 00:24:17
  TRACK 26 AUDIO
    TITLE "8:cjc174_2912"
    INDEX 01 00:24:66
  TRACK 27 AUDIO
    TITLE "0:"
    INDEX 01 00:26:10
  TRACK 28 AUDIO
    TITLE "7:cjc174_2913"
    INDEX 01 00:26:55
  TRACK 29 AUDIO
    TITLE "0:"
    INDEX 01 00:27:50
  TRACK 30 AUDIO
    TITLE "8:cjc174_2914"
    INDEX 01 00:28:22
  TRACK 31 AUDIO
    TITLE "0:"
    INDEX 01 00:33:72
  TRACK 32 AUDIO
    TITLE "7:cjc174_2915"
    INDEX 01 00:34:43
  TRACK 33 AUDIO
    TITLE "0:"
    INDEX 01 00:35:44
  TRACK 34 AUDIO
    TITLE "8:cjc174_2916"
    INDEX 01 00:36:28
  TRACK 35 AUDIO
    TITLE "0:"
    INDEX 01 00:37:49
  TRACK 36 AUDIO
    TITLE "7:cjc174_2917"
    INDEX 01 00:38:19
  TRACK 37 AUDIO
    TITLE "0:"
    INDEX 01 00:39:55
  TRACK 38 AUDIO
    TITLE "8:cjc174_2918"
    INDEX 01 00:40:27
  TRACK 39 AUDIO
    TITLE "0:"
    INDEX 01 00:41:64
  TRACK 40 AUDIO
    TITLE "7:cjc174_2919"
    INDEX 01 00:42:34
  TRACK 41 AUDIO
    TITLE "0:"
    INDEX 01 00:43:40
  TRACK 42 AUDIO
    TITLE "8:cjc174_2920"
    INDEX 01 00:44:12
  TRACK 43 AUDIO
    TITLE "0:"
    INDEX 01 00:46:52
  TRACK 44 AUDIO
    TITLE "7:cjc174_2921"
    INDEX 01 00:47:22
  TRACK 45 AUDIO
    TITLE "0:"
    INDEX 01 00:48:35
  TRACK 46 AUDIO
    TITLE "8:cjc174_2922"
    INDEX 01 00:49:09
  TRACK 47 AUDIO
    TITLE "0:"
    INDEX 01 00:52:44
  TRACK 48 AUDIO
    TITLE "7:cjc174_2923"
    INDEX 01 00:53:12
  TRACK 49 AUDIO
    TITLE "0:"
    INDEX 01 00:54:37
  TRACK 50 AUDIO
    TITLE "8:cjc174_2924"
    INDEX 01 00:55:13
  TRACK 51 AUDIO
    TITLE "0:"
    INDEX 01 00:57:51
  TRACK 52 AUDIO
    TITLE "7:cjc174_2925"
    INDEX 01 00:58:21
  TRACK 53 AUDIO
    TITLE "0:"
    INDEX 01 00:59:62
  TRACK 54 AUDIO
    TITLE "8:cjc174_2926"
    INDEX 01 01:00:32
  TRACK 55 AUDIO
    TITLE "0:"
    INDEX 01 01:02:74
  TRACK 56 AUDIO
    TITLE "7:cjc174_2927"
    INDEX 01 01:03:44
  TRACK 57 AUDIO
    TITLE "0:"
    INDEX 01 01:04:67
  TRACK 58 AUDIO
    TITLE "8:cjc174_2928"
    INDEX 01 01:05:43
  TRACK 59 AUDIO
    TITLE "0:"
    INDEX 01 01:06:74
  TRACK 60 AUDIO
    TITLE "7:cjc174_2929"
    INDEX 01 01:07:44
  TRACK 61 AUDIO
    TITLE "0:"
    INDEX 01 01:08:71
  TRACK 62 AUDIO
    TITLE "8:cjc174_2930"
    INDEX 01 01:09:41
  TRACK 63 AUDIO
    TITLE "0:"
    INDEX 01 01:12:08
  TRACK 64 AUDIO
    TITLE "7:cjc174_2931"
    INDEX 01 01:12:55
  TRACK 65 AUDIO
    TITLE "0:"
    INDEX 01 01:13:66
  TRACK 66 AUDIO
    TITLE "8:cjc174_2932"
    INDEX 01 01:14:40
  TRACK 67 AUDIO
    TITLE "0:"
    INDEX 01 01:15:63
  TRACK 68 AUDIO
    TITLE "7:cjc174_2933"
    INDEX 01 01:16:33
  TRACK 69 AUDIO
    TITLE "0:"
    INDEX 01 01:17:64
  TRACK 70 AUDIO
    TITLE "8:cjc174_2934"
    INDEX 01 01:18:34
  TRACK 71 AUDIO
    TITLE "0:"
    INDEX 01 01:19:55
